<?xml version="1.0" encoding="utf-8"?>
<!-- Generator: Adobe Illustrator 16.0.0, SVG Export Plug-In . SVG Version: 6.00 Build 0)  -->
<!DOCTYPE svg PUBLIC "-//W3C//DTD SVG 1.1//EN" "http://www.w3.org/Graphics/SVG/1.1/DTD/svg11.dtd">
<svg version="1.1" id="Layer_1" xmlns="http://www.w3.org/2000/svg" xmlns:xlink="http://www.w3.org/1999/xlink" x="0px" y="0px"
	 width="38px" height="38px" viewBox="0 0 38 38" enable-background="new 0 0 38 38" xml:space="preserve">
<rect x="10.5" y="15.5" fill="#FFFFFF" width="4" height="12"/>
<ellipse fill="#FFFFFF" cx="12.484" cy="11.5" rx="1.984" ry="2"/>
<path fill="#FFFFFF" d="M20.5,21.229c0-1.68,0.641-2.68,2.12-2.68c1.358,0,1.88,0.96,1.88,2.68c0,1.721,0,6.271,0,6.271h4
	c0,0,0-4.364,0-7.562c0-3.201-1.84-4.748-4.374-4.748c-2.532,0-3.626,1.974-3.626,1.974V15.5h-4v12h4
	C20.5,27.5,20.5,23.07,20.5,21.229z"/>
</svg>
