<?xml version="1.0" encoding="utf-8"?>
<!-- Generator: Adobe Illustrator 17.1.0, SVG Export Plug-In . SVG Version: 6.00 Build 0)  -->
<!DOCTYPE svg PUBLIC "-//W3C//DTD SVG 1.1//EN" "http://www.w3.org/Graphics/SVG/1.1/DTD/svg11.dtd">
<svg version="1.1" id="Layer_1" xmlns="http://www.w3.org/2000/svg" xmlns:xlink="http://www.w3.org/1999/xlink" x="0px" y="0px"
	 viewBox="0 0 38 38" enable-background="new 0 0 38 38" xml:space="preserve">
<path fill="#FFFFFF" d="M11.5,19.7l0.2,0.3c1.2,1.7,2.7,2.5,5.4,2.8c-0.6,0.5-1,1.1-1,1.8c0,0-0.3,0-1.4,0c-1.9,0-2.4-2.4-4.4-2.2
	c1.9,0.9,1.5,4,4.6,4h1.3v2.8c0,0.4-0.2,0.8-0.5,1c1.1,0.1,1.9-0.4,1.9-1.1v-3.7c0-0.3,0.3-0.4,0.3-0.4v4.3c0,0.4-0.2,0.7-0.4,0.9
	c1,0,1.9-0.2,1.9-1c0,0,0-3.9,0-4.1c0-0.2,0.3-0.2,0.3,0c0,0.2,0,3.9,0,3.9c0,0.7,0.6,1.3,1.9,1.2c-0.3-0.3-0.4-0.6-0.4-1
	c0-0.4,0-4.2,0-4.2s0.4,0,0.4,0.4v3.6c0,0.8,1,1.1,2,1.1c-0.4-0.3-0.6-0.6-0.6-1v-4.3c0-0.6-0.3-1.2-0.8-1.8
	c2.4-0.4,4.2-1.4,5.1-3.1c0-0.1,0.1-0.2,0.1-0.3c0.1-0.2,0.1-0.5,0.2-0.7c0.2-0.6,0.3-1.3,0.3-2.1c0-1.8-0.6-3.2-1.6-4.4
	c0.2-1.1,0-2.2-0.3-3.3c-1.4,0.1-2.6,0.6-3.7,1.3c-2-0.4-4.1-0.4-6.1,0C14.9,9.5,13.6,9,12.4,9c-0.4,1.2-0.4,2.4-0.1,3.6
	c-1.1,1.1-1.5,2.5-1.5,4.1C10.8,17.5,11,19,11.5,19.7"/>
</svg>
