<?xml version="1.0" encoding="utf-8"?>
<!-- Generator: Adobe Illustrator 16.0.0, SVG Export Plug-In . SVG Version: 6.00 Build 0)  -->
<!DOCTYPE svg PUBLIC "-//W3C//DTD SVG 1.1//EN" "http://www.w3.org/Graphics/SVG/1.1/DTD/svg11.dtd">
<svg version="1.1" id="Layer_1" xmlns="http://www.w3.org/2000/svg" xmlns:xlink="http://www.w3.org/1999/xlink" x="0px" y="0px"
	 width="38px" height="38px" viewBox="0 0 38 38" enable-background="new 0 0 38 38" xml:space="preserve">
<path fill="#FFFFFF" d="M30.074,13.475c-0.721,0.319-1.494,0.536-2.307,0.631c0.828-0.497,1.465-1.284,1.766-2.221
	c-0.775,0.46-1.637,0.795-2.551,0.975c-0.732-0.781-1.775-1.269-2.932-1.269c-2.217,0-4.015,1.797-4.015,4.016
	c0,0.314,0.035,0.621,0.104,0.915c-3.337-0.167-6.296-1.767-8.277-4.195c-0.347,0.593-0.544,1.283-0.544,2.019
	c0,1.393,0.709,2.622,1.787,3.342c-0.659-0.021-1.278-0.202-1.82-0.502c0,0.017,0,0.034,0,0.051c0,1.944,1.385,3.568,3.221,3.937
	c-0.336,0.092-0.691,0.142-1.057,0.142c-0.259,0-0.512-0.025-0.756-0.072c0.511,1.596,1.994,2.757,3.75,2.789
	c-1.374,1.077-3.106,1.72-4.987,1.72c-0.324,0-0.644-0.02-0.958-0.057c1.777,1.14,3.888,1.806,6.156,1.806
	c7.387,0,11.426-6.121,11.426-11.428c0-0.173-0.004-0.348-0.012-0.519C28.854,14.987,29.535,14.28,30.074,13.475z"/>
</svg>
